<svg width="1100" height="800" style="background-color: white;"><g><rect fill="#97233F" x="47.901234567901156" y="282.5" width="25" height="437.5"></rect><image href="https://static.www.nfl.com/t_thumb_squared/f_auto/league/api/clubs/logos/ARI" x="33.901234567901156" y="257.5" width="50" height="50"></image></g><g><rect fill="#A71930" x="80.15432098765424" y="85.625" width="25" height="634.375"></rect><image href="https://static.www.nfl.com/t_thumb_squared/f_auto/league/api/clubs/logos/ATL" x="66.15432098765424" y="60.625" width="50" height="50"></image></g><g><rect fill="#241773" x="112.40740740740733" y="479.375" width="25" height="240.625"></rect><image href="https://static.www.nfl.com/t_thumb_squared/f_auto/league/api/clubs/logos/BAL" x="98.40740740740733" y="454.375" width="50" height="50"></image></g><g><rect fill="#00338D" x="144.66049382716042" y="698.125" width="25" height="21.875"></rect><image href="https://static.www.nfl.com/t_thumb_squared/f_auto/league/api/clubs/logos/BUF" x="130.66049382716042" y="673.125" width="50" height="50"></image></g><g><rect fill="#0085CA" x="176.9135802469135" y="173.125" width="25" height="546.875"></rect><image href="https://static.www.nfl.com/t_thumb_squared/f_auto/league/api/clubs/logos/CAR" x="162.9135802469135" y="148.125" width="50" height="50"></image></g><g><rect fill="#0B162A" x="209.1666666666666" y="63.75" width="25" height="656.25"></rect><image href="https://static.www.nfl.com/t_thumb_squared/f_auto/league/api/clubs/logos/CHI" x="195.1666666666666" y="38.75" width="50" height="50"></image></g><g><rect fill="#FB4F14" x="241.4197530864197" y="632.5" width="25" height="87.5"></rect><image href="https://static.www.nfl.com/t_thumb_squared/f_auto/league/api/clubs/logos/CIN" x="227.4197530864197" y="607.5" width="50" height="50"></image></g><g><rect fill="#311D00" x="273.67283950617275" y="413.75" width="25" height="306.25"></rect><image href="https://static.www.nfl.com/t_thumb_squared/f_auto/league/api/clubs/logos/CLE" x="259.67283950617275" y="388.75" width="50" height="50"></image></g><g><rect fill="#869397" x="305.92592592592587" y="435.625" width="25" height="284.375"></rect><image href="https://static.www.nfl.com/t_thumb_squared/f_auto/league/api/clubs/logos/DAL" x="291.92592592592587" y="410.625" width="50" height="50"></image></g><g><rect fill="#FB4F14" x="338.179012345679" y="545" width="25" height="175"></rect><image href="https://static.www.nfl.com/t_thumb_squared/f_auto/league/api/clubs/logos/DEN" x="324.179012345679" y="520" width="50" height="50"></image></g><g><rect fill="#0076B6" x="370.43209876543204" y="129.375" width="25" height="590.625"></rect><image href="https://static.www.nfl.com/t_thumb_squared/f_auto/league/api/clubs/logos/DET" x="356.43209876543204" y="104.375" width="50" height="50"></image></g><g><rect fill="#203731" x="402.6851851851851" y="588.75" width="25" height="131.25"></rect><image href="https://static.www.nfl.com/t_thumb_squared/f_auto/league/api/clubs/logos/GB" x="388.6851851851851" y="563.75" width="50" height="50"></image></g><g><rect fill="#A71930" x="434.9382716049382" y="20" width="25" height="700"></rect><image href="https://static.www.nfl.com/t_thumb_squared/f_auto/league/api/clubs/logos/HOU" x="420.9382716049382" y="-5" width="50" height="50"></image></g><g><rect fill="#002C5F" x="467.19135802469134" y="457.5" width="25" height="262.5"></rect><image href="https://static.www.nfl.com/t_thumb_squared/f_auto/league/api/clubs/logos/IND" x="453.19135802469134" y="432.5" width="50" height="50"></image></g><g><rect fill="#006778" x="499.4444444444444" y="41.875" width="25" height="678.125"></rect><image href="https://static.www.nfl.com/t_thumb_squared/f_auto/league/api/clubs/logos/JAX" x="485.4444444444444" y="16.875" width="50" height="50"></image></g><g><rect fill="#E31837" x="531.6975308641975" y="566.875" width="25" height="153.125"></rect><image href="https://static.www.nfl.com/t_thumb_squared/f_auto/league/api/clubs/logos/KC" x="517.6975308641975" y="541.875" width="50" height="50"></image></g><g><rect fill="#A5ACAF" x="563.9506172839506" y="501.25" width="25" height="218.75"></rect><image href="https://static.www.nfl.com/t_thumb_squared/f_auto/league/api/clubs/logos/LV" x="549.9506172839506" y="476.25" width="50" height="50"></image></g><g><rect fill="#0080C6" x="596.2037037037037" y="523.125" width="25" height="196.875"></rect><image href="https://static.www.nfl.com/t_thumb_squared/f_auto/league/api/clubs/logos/LAC" x="582.2037037037037" y="498.125" width="50" height="50"></image></g><g><rect fill="#003594" x="628.4567901234568" y="676.25" width="25" height="43.75"></rect><image href="https://static.www.nfl.com/t_thumb_squared/f_auto/league/api/clubs/logos/LA" x="614.4567901234568" y="651.25" width="50" height="50"></image></g><g><rect fill="#008E97" x="660.7098765432098" y="304.375" width="25" height="415.625"></rect><image href="https://static.www.nfl.com/t_thumb_squared/f_auto/league/api/clubs/logos/MIA" x="646.7098765432098" y="279.375" width="50" height="50"></image></g><g><rect fill="#4F2683" x="692.9629629629629" y="238.75" width="25" height="481.25"></rect><image href="https://static.www.nfl.com/t_thumb_squared/f_auto/league/api/clubs/logos/MIN" x="678.9629629629629" y="213.75" width="50" height="50"></image></g><g><rect fill="#B0B7BC" x="725.216049382716" y="348.125" width="25" height="371.875"></rect><image href="https://static.www.nfl.com/t_thumb_squared/f_auto/league/api/clubs/logos/NE" x="711.216049382716" y="323.125" width="50" height="50"></image></g><g><rect fill="#D3BC8D" x="757.469135802469" y="326.25" width="25" height="393.75"></rect><image href="https://static.www.nfl.com/t_thumb_squared/f_auto/league/api/clubs/logos/NO" x="743.469135802469" y="301.25" width="50" height="50"></image></g><g><rect fill="#0B2265" x="789.7222222222222" y="107.5" width="25" height="612.5"></rect><image href="https://static.www.nfl.com/t_thumb_squared/f_auto/league/api/clubs/logos/NYG" x="775.7222222222222" y="82.5" width="50" height="50"></image></g><g><rect fill="#125740" x="821.9753086419753" y="195" width="25" height="525"></rect><image href="https://static.www.nfl.com/t_thumb_squared/f_auto/league/api/clubs/logos/NYJ" x="807.9753086419753" y="170" width="50" height="50"></image></g><g><rect fill="#004C54" x="854.2283950617284" y="391.875" width="25" height="328.125"></rect><image href="https://static.www.nfl.com/t_thumb_squared/f_auto/league/api/clubs/logos/PHI" x="840.2283950617284" y="366.875" width="50" height="50"></image></g><g><rect fill="#FFB612" x="886.4814814814815" y="260.625" width="25" height="459.375"></rect><image href="https://static.www.nfl.com/t_thumb_squared/f_auto/league/api/clubs/logos/PIT" x="872.4814814814815" y="235.625" width="50" height="50"></image></g><g><rect fill="#AA0000" x="918.7345679012345" y="610.625" width="25" height="109.375"></rect><image href="https://static.www.nfl.com/t_thumb_squared/f_auto/league/api/clubs/logos/SF" x="904.7345679012345" y="585.625" width="50" height="50"></image></g><g><rect fill="#69BE28" x="950.9876543209876" y="216.875" width="25" height="503.125"></rect><image href="https://static.www.nfl.com/t_thumb_squared/f_auto/league/api/clubs/logos/SEA" x="936.9876543209876" y="191.875" width="50" height="50"></image></g><g><rect fill="#D50A0A" x="983.2407407407408" y="654.375" width="25" height="65.625"></rect><image href="https://static.www.nfl.com/t_thumb_squared/f_auto/league/api/clubs/logos/TB" x="969.2407407407408" y="629.375" width="50" height="50"></image></g><g><rect fill="#4B92DB" x="1015.4938271604938" y="370" width="25" height="350"></rect><image href="https://static.www.nfl.com/t_thumb_squared/f_auto/league/api/clubs/logos/TEN" x="1001.4938271604938" y="345" width="50" height="50"></image></g><g><rect fill="#5A1414" x="1047.7469135802469" y="151.25" width="25" height="568.75"></rect><image href="https://static.www.nfl.com/t_thumb_squared/f_auto/league/api/clubs/logos/WAS" x="1033.7469135802469" y="126.25" width="50" height="50"></image></g><text x="530" y="20" font-size="20">2022 Post Draft NFL Team Rankings</text><text transform="translate(20,370)rotate(-90)" font-size="20">Ranks</text><text transform="translate(500, 790)" font-size="20">Teams</text><g class="x_axis" transform="translate(0, 720)" fill="none" font-size="10" font-family="sans-serif" text-anchor="middle"><path class="domain" stroke="currentColor" d="M35.5,6V0.5H1080.5V6" style="color: black;"></path><g class="tick" opacity="1" transform="translate(57.57716049382708,0)"><line stroke="currentColor" y2="6" style="color: black;"></line><text fill="currentColor" y="9" dy="0.71em" style="color: black;" transform="translate(-30,15)rotate(-35)">Arizona Cardinals</text></g><g class="tick" opacity="1" transform="translate(89.83024691358017,0)"><line stroke="currentColor" y2="6" style="color: black;"></line><text fill="currentColor" y="9" dy="0.71em" style="color: black;" transform="translate(-30,15)rotate(-35)">Atlanta Falcons</text></g><g class="tick" opacity="1" transform="translate(122.08333333333326,0)"><line stroke="currentColor" y2="6" style="color: black;"></line><text fill="currentColor" y="9" dy="0.71em" style="color: black;" transform="translate(-30,15)rotate(-35)">Baltimore Ravens</text></g><g class="tick" opacity="1" transform="translate(154.33641975308635,0)"><line stroke="currentColor" y2="6" style="color: black;"></line><text fill="currentColor" y="9" dy="0.71em" style="color: black;" transform="translate(-30,15)rotate(-35)">Buffalo Bills</text></g><g class="tick" opacity="1" transform="translate(186.58950617283944,0)"><line stroke="currentColor" y2="6" style="color: black;"></line><text fill="currentColor" y="9" dy="0.71em" style="color: black;" transform="translate(-30,15)rotate(-35)">Carolina Panthers</text></g><g class="tick" opacity="1" transform="translate(218.84259259259252,0)"><line stroke="currentColor" y2="6" style="color: black;"></line><text fill="currentColor" y="9" dy="0.71em" style="color: black;" transform="translate(-30,15)rotate(-35)">Chicago Bears</text></g><g class="tick" opacity="1" transform="translate(251.0956790123456,0)"><line stroke="currentColor" y2="6" style="color: black;"></line><text fill="currentColor" y="9" dy="0.71em" style="color: black;" transform="translate(-30,15)rotate(-35)">Cincinnati Bengals</text></g><g class="tick" opacity="1" transform="translate(283.3487654320987,0)"><line stroke="currentColor" y2="6" style="color: black;"></line><text fill="currentColor" y="9" dy="0.71em" style="color: black;" transform="translate(-30,15)rotate(-35)">Cleveland Browns</text></g><g class="tick" opacity="1" transform="translate(315.6018518518518,0)"><line stroke="currentColor" y2="6" style="color: black;"></line><text fill="currentColor" y="9" dy="0.71em" style="color: black;" transform="translate(-30,15)rotate(-35)">Dallas Cowboys</text></g><g class="tick" opacity="1" transform="translate(347.8549382716049,0)"><line stroke="currentColor" y2="6" style="color: black;"></line><text fill="currentColor" y="9" dy="0.71em" style="color: black;" transform="translate(-30,15)rotate(-35)">Denver Broncos</text></g><g class="tick" opacity="1" transform="translate(380.10802469135797,0)"><line stroke="currentColor" y2="6" style="color: black;"></line><text fill="currentColor" y="9" dy="0.71em" style="color: black;" transform="translate(-30,15)rotate(-35)">Detroit Lions</text></g><g class="tick" opacity="1" transform="translate(412.36111111111103,0)"><line stroke="currentColor" y2="6" style="color: black;"></line><text fill="currentColor" y="9" dy="0.71em" style="color: black;" transform="translate(-30,15)rotate(-35)">Green Bay Packers</text></g><g class="tick" opacity="1" transform="translate(444.61419753086415,0)"><line stroke="currentColor" y2="6" style="color: black;"></line><text fill="currentColor" y="9" dy="0.71em" style="color: black;" transform="translate(-30,15)rotate(-35)">Houston Texans</text></g><g class="tick" opacity="1" transform="translate(476.86728395061726,0)"><line stroke="currentColor" y2="6" style="color: black;"></line><text fill="currentColor" y="9" dy="0.71em" style="color: black;" transform="translate(-30,15)rotate(-35)">Indianapolis Colts</text></g><g class="tick" opacity="1" transform="translate(509.1203703703703,0)"><line stroke="currentColor" y2="6" style="color: black;"></line><text fill="currentColor" y="9" dy="0.71em" style="color: black;" transform="translate(-30,15)rotate(-35)">Jacksonville Jaguars</text></g><g class="tick" opacity="1" transform="translate(541.3734567901234,0)"><line stroke="currentColor" y2="6" style="color: black;"></line><text fill="currentColor" y="9" dy="0.71em" style="color: black;" transform="translate(-30,15)rotate(-35)">Kansas City Chiefs</text></g><g class="tick" opacity="1" transform="translate(573.6265432098766,0)"><line stroke="currentColor" y2="6" style="color: black;"></line><text fill="currentColor" y="9" dy="0.71em" style="color: black;" transform="translate(-30,15)rotate(-35)">Las Vegas Raiders</text></g><g class="tick" opacity="1" transform="translate(605.8796296296297,0)"><line stroke="currentColor" y2="6" style="color: black;"></line><text fill="currentColor" y="9" dy="0.71em" style="color: black;" transform="translate(-30,15)rotate(-35)">Los Angeles Chargers</text></g><g class="tick" opacity="1" transform="translate(638.1327160493828,0)"><line stroke="currentColor" y2="6" style="color: black;"></line><text fill="currentColor" y="9" dy="0.71em" style="color: black;" transform="translate(-30,15)rotate(-35)">Los Angeles Rams</text></g><g class="tick" opacity="1" transform="translate(670.3858024691358,0)"><line stroke="currentColor" y2="6" style="color: black;"></line><text fill="currentColor" y="9" dy="0.71em" style="color: black;" transform="translate(-30,15)rotate(-35)">Miami Dolphins</text></g><g class="tick" opacity="1" transform="translate(702.6388888888889,0)"><line stroke="currentColor" y2="6" style="color: black;"></line><text fill="currentColor" y="9" dy="0.71em" style="color: black;" transform="translate(-30,15)rotate(-35)">Minnesota Vikings</text></g><g class="tick" opacity="1" transform="translate(734.891975308642,0)"><line stroke="currentColor" y2="6" style="color: black;"></line><text fill="currentColor" y="9" dy="0.71em" style="color: black;" transform="translate(-30,15)rotate(-35)">New England Patriots</text></g><g class="tick" opacity="1" transform="translate(767.145061728395,0)"><line stroke="currentColor" y2="6" style="color: black;"></line><text fill="currentColor" y="9" dy="0.71em" style="color: black;" transform="translate(-30,15)rotate(-35)">New Orleans Saints</text></g><g class="tick" opacity="1" transform="translate(799.3981481481482,0)"><line stroke="currentColor" y2="6" style="color: black;"></line><text fill="currentColor" y="9" dy="0.71em" style="color: black;" transform="translate(-30,15)rotate(-35)">New York Giants</text></g><g class="tick" opacity="1" transform="translate(831.6512345679013,0)"><line stroke="currentColor" y2="6" style="color: black;"></line><text fill="currentColor" y="9" dy="0.71em" style="color: black;" transform="translate(-30,15)rotate(-35)">New York Jets</text></g><g class="tick" opacity="1" transform="translate(863.9043209876544,0)"><line stroke="currentColor" y2="6" style="color: black;"></line><text fill="currentColor" y="9" dy="0.71em" style="color: black;" transform="translate(-30,15)rotate(-35)">Philadelphia Eagles</text></g><g class="tick" opacity="1" transform="translate(896.1574074074075,0)"><line stroke="currentColor" y2="6" style="color: black;"></line><text fill="currentColor" y="9" dy="0.71em" style="color: black;" transform="translate(-30,15)rotate(-35)">Pittsburgh Steelers</text></g><g class="tick" opacity="1" transform="translate(928.4104938271605,0)"><line stroke="currentColor" y2="6" style="color: black;"></line><text fill="currentColor" y="9" dy="0.71em" style="color: black;" transform="translate(-30,15)rotate(-35)">San Francisco 49ers</text></g><g class="tick" opacity="1" transform="translate(960.6635802469136,0)"><line stroke="currentColor" y2="6" style="color: black;"></line><text fill="currentColor" y="9" dy="0.71em" style="color: black;" transform="translate(-30,15)rotate(-35)">Seattle Seahawks</text></g><g class="tick" opacity="1" transform="translate(992.9166666666667,0)"><line stroke="currentColor" y2="6" style="color: black;"></line><text fill="currentColor" y="9" dy="0.71em" style="color: black;" transform="translate(-30,15)rotate(-35)">Tampa Bay Buccaneers</text></g><g class="tick" opacity="1" transform="translate(1025.1697530864196,0)"><line stroke="currentColor" y2="6" style="color: black;"></line><text fill="currentColor" y="9" dy="0.71em" style="color: black;" transform="translate(-30,15)rotate(-35)">Tennessee Titans</text></g><g class="tick" opacity="1" transform="translate(1057.4228395061727,0)"><line stroke="currentColor" y2="6" style="color: black;"></line><text fill="currentColor" y="9" dy="0.71em" style="color: black;" transform="translate(-30,15)rotate(-35)">Washington Commanders</text></g></g><g class="y_axis" transform="translate(35, 0)" fill="none" font-size="10" font-family="sans-serif" text-anchor="end"><path class="domain" stroke="currentColor" d="M-6,720.5H0.5V20.5H-6" style="color: black;"></path><g class="tick" opacity="1" transform="translate(0,720.5)"><line stroke="currentColor" x2="-6" style="color: black;"></line><text fill="currentColor" x="-9" dy="0.32em" style="color: black;">0</text></g><g class="tick" opacity="1" transform="translate(0,611.125)"><line stroke="currentColor" x2="-6" style="color: black;"></line><text fill="currentColor" x="-9" dy="0.32em" style="color: black;">5</text></g><g class="tick" opacity="1" transform="translate(0,501.75)"><line stroke="currentColor" x2="-6" style="color: black;"></line><text fill="currentColor" x="-9" dy="0.32em" style="color: black;">10</text></g><g class="tick" opacity="1" transform="translate(0,392.375)"><line stroke="currentColor" x2="-6" style="color: black;"></line><text fill="currentColor" x="-9" dy="0.32em" style="color: black;">15</text></g><g class="tick" opacity="1" transform="translate(0,283)"><line stroke="currentColor" x2="-6" style="color: black;"></line><text fill="currentColor" x="-9" dy="0.32em" style="color: black;">20</text></g><g class="tick" opacity="1" transform="translate(0,173.625)"><line stroke="currentColor" x2="-6" style="color: black;"></line><text fill="currentColor" x="-9" dy="0.32em" style="color: black;">25</text></g><g class="tick" opacity="1" transform="translate(0,64.25)"><line stroke="currentColor" x2="-6" style="color: black;"></line><text fill="currentColor" x="-9" dy="0.32em" style="color: black;">30</text></g></g></svg>